<svg width="128" height="24" viewBox="0 0 128 24" fill="none" xmlns="http://www.w3.org/2000/svg">
<g clip-path="url(#clip0_2_7021)">
<path d="M0 0.00634766H23.9872V23.9936H0V0.00634766ZM25.9861 0.00634766H49.9733V23.9936H25.9861V0.00634766ZM51.9723 0.00634766H75.9595V23.9936H51.9723V0.00634766ZM77.9584 0.00634766H101.946V23.9936H77.9584V0.00634766ZM103.945 0.00634766H127.932V23.9936H103.945V0.00634766Z" fill="#00B67A"/>
<path d="M11.9935 16.1727L15.6416 15.2482L17.1658 19.9457L11.9935 16.1727ZM20.3891 10.101H13.9675L11.9935 4.0542L10.0196 10.101H3.59802L8.79525 13.849L6.8213 19.8958L12.0185 16.1478L15.2168 13.849L20.3891 10.101ZM37.9797 16.1727L41.6277 15.2482L43.1519 19.9457L37.9797 16.1727ZM46.3752 10.101H39.9536L37.9797 4.0542L36.0057 10.101H29.5842L34.7814 13.849L32.8074 19.8958L38.0047 16.1478L41.203 13.849L46.3752 10.101ZM63.9658 16.1727L67.6139 15.2482L69.1381 19.9457L63.9658 16.1727ZM72.3613 10.101H65.9398L63.9658 4.0542L61.9919 10.101H55.5703L60.7675 13.849L58.7936 19.8958L63.9908 16.1478L67.1891 13.849L72.3613 10.101ZM89.952 16.1727L93.6 15.2482L95.1242 19.9457L89.952 16.1727ZM98.3475 10.101H91.9259L89.952 4.0542L87.978 10.101H81.5564L86.7537 13.849L84.7797 19.8958L89.9769 16.1478L93.1752 13.849L98.3475 10.101ZM115.938 16.1727L119.586 15.2482L121.11 19.9457L115.938 16.1727ZM124.334 10.101H117.912L115.938 4.0542L113.964 10.101H107.543L112.74 13.849L110.766 19.8958L115.963 16.1478L119.161 13.849L124.334 10.101Z" fill="white"/>
</g>
<defs>
<clipPath id="clip0_2_7021">
<rect width="127.932" height="24" fill="white"/>
</clipPath>
</defs>
</svg>
