<svg width="127" height="32" viewBox="0 0 127 32" fill="none" xmlns="http://www.w3.org/2000/svg">
<g clip-path="url(#clip0_2_9325)">
<path d="M110.058 0H16.9501C7.20635 0 0.5 6.52087 0.5 16C0.5 25.4791 7.2043 32.0079 16.9501 32.0079H110.058C119.802 32.0079 126.508 25.4871 126.508 16.0079C126.508 6.52883 119.794 0 110.058 0Z" fill="#1B1B1B"/>
<path d="M113.006 13.6998C113.006 10.0398 110.714 8.02189 106.518 8.02189H99.1126C98.9692 8.01056 98.825 8.02928 98.6897 8.0768C98.5544 8.12431 98.4311 8.19951 98.3282 8.29731C98.2254 8.39511 98.1452 8.51324 98.0933 8.64372C98.0414 8.77421 98.0188 8.91401 98.0272 9.0537V22.9424C98.0272 23.5766 98.4605 23.9742 99.1126 23.9742H102.418C102.561 23.9855 102.705 23.9668 102.841 23.9193C102.976 23.8718 103.099 23.7966 103.202 23.6988C103.305 23.601 103.385 23.4828 103.437 23.3523C103.489 23.2219 103.511 23.0821 103.503 22.9424V19.4931C103.501 19.4617 103.506 19.4303 103.517 19.4009C103.529 19.3715 103.546 19.3448 103.569 19.3226C103.592 19.3004 103.619 19.2832 103.65 19.2722C103.68 19.2611 103.712 19.2564 103.744 19.2585H104.637C104.928 22.3082 106.477 23.9742 109.39 23.9742H111.706C111.849 23.9855 111.993 23.9668 112.129 23.9193C112.264 23.8718 112.387 23.7966 112.49 23.6988C112.593 23.601 112.673 23.4828 112.725 23.3523C112.777 23.2219 112.799 23.0821 112.791 22.9424V20.8549C112.791 20.2207 112.358 19.8231 111.706 19.8231H110.33C109.631 19.8231 109.196 19.5189 109.124 18.9086C111.655 18.2525 113.006 16.5149 113.006 13.6998ZM106.228 15.4891H103.744C103.712 15.4911 103.68 15.4865 103.65 15.4754C103.619 15.4643 103.592 15.4471 103.569 15.4249C103.546 15.4027 103.529 15.376 103.517 15.3466C103.506 15.3172 103.501 15.2858 103.503 15.2545V12.6203C103.501 12.589 103.506 12.5575 103.517 12.5282C103.529 12.4988 103.546 12.4721 103.569 12.4499C103.592 12.4277 103.619 12.4105 103.65 12.3994C103.68 12.3883 103.712 12.3837 103.744 12.3857H106.228C107.289 12.3857 107.82 13.1372 107.82 13.9344C107.829 14.1401 107.794 14.3454 107.717 14.5372C107.64 14.7291 107.523 14.9033 107.374 15.0489C107.224 15.1945 107.045 15.3083 106.847 15.383C106.65 15.4577 106.439 15.4918 106.228 15.4831V15.4891Z" fill="white"/>
<path d="M88.911 12.0359H95.0859C95.2293 12.0472 95.3735 12.0285 95.5088 11.9809C95.6441 11.9334 95.7674 11.8582 95.8702 11.7604C95.9731 11.6626 96.0532 11.5445 96.1052 11.414C96.1571 11.2835 96.1796 11.1437 96.1713 11.004V9.05773C96.1713 8.42353 95.7379 8.02592 95.0859 8.02592H84.4571C84.3137 8.01459 84.1695 8.03331 84.0342 8.08083C83.8989 8.12834 83.7757 8.20353 83.6728 8.30133C83.5699 8.39914 83.4898 8.51727 83.4379 8.64775C83.3859 8.77824 83.3634 8.91804 83.3718 9.05773V22.9464C83.3718 23.5806 83.8051 23.9782 84.4571 23.9782H95.4232C95.5665 23.9895 95.7108 23.9708 95.8461 23.9233C95.9814 23.8758 96.1046 23.8006 96.2075 23.7028C96.3104 23.605 96.3905 23.4868 96.4424 23.3564C96.4943 23.2259 96.5169 23.0861 96.5085 22.9464V21.0001C96.5085 20.3659 96.0752 19.9683 95.4232 19.9683H88.911C88.8788 19.9703 88.8465 19.9656 88.8163 19.9546C88.786 19.9435 88.7586 19.9263 88.7358 19.9041C88.7129 19.8819 88.6952 19.8552 88.6839 19.8258C88.6725 19.7964 88.6677 19.765 88.6698 19.7337V18.0915C88.6677 18.0602 88.6725 18.0288 88.6839 17.9994C88.6952 17.97 88.7129 17.9433 88.7358 17.9211C88.7586 17.8989 88.786 17.8817 88.8163 17.8706C88.8465 17.8595 88.8788 17.8549 88.911 17.8569H93.976C94.1194 17.8683 94.2636 17.8495 94.3989 17.802C94.5342 17.7545 94.6575 17.6793 94.7604 17.5815C94.8632 17.4837 94.9433 17.3656 94.9953 17.2351C95.0472 17.1046 95.0697 16.9648 95.0614 16.8251V15.0359C95.0614 14.4017 94.628 14.004 93.976 14.004H88.911C88.8788 14.0061 88.8465 14.0014 88.8163 13.9904C88.786 13.9793 88.7586 13.9621 88.7358 13.9399C88.7129 13.9177 88.6952 13.891 88.6839 13.8616C88.6725 13.8322 88.6677 13.8008 88.6698 13.7695V12.2744C88.6674 12.2428 88.672 12.2111 88.6832 12.1814C88.6944 12.1517 88.7121 12.1246 88.7349 12.102C88.7577 12.0795 88.7852 12.0619 88.8156 12.0505C88.846 12.0391 88.8785 12.0341 88.911 12.0359Z" fill="white"/>
<path d="M68.5058 8.02391C68.3624 8.01258 68.2182 8.0313 68.0829 8.07882C67.9476 8.12633 67.8243 8.20153 67.7214 8.29933C67.6185 8.39713 67.5384 8.51526 67.4865 8.64574C67.4346 8.77623 67.412 8.91603 67.4204 9.05572V22.9444C67.4204 23.5786 67.8537 23.9762 68.5058 23.9762H71.8109C71.9543 23.9875 72.0985 23.9688 72.2338 23.9213C72.3691 23.8738 72.4924 23.7986 72.5953 23.7008C72.6981 23.603 72.7782 23.4848 72.8302 23.3544C72.8821 23.2239 72.9046 23.0841 72.8963 22.9444V20.6919C72.8968 20.4991 72.9758 20.3143 73.116 20.178C73.2562 20.0416 73.4461 19.9648 73.6444 19.9643H75.4043C79.6006 19.9643 81.8919 17.8529 81.8919 13.9822C81.8919 10.1114 79.6006 8.01794 75.4043 8.01794L68.5058 8.02391ZM76.7063 14.1472C76.7063 15.2267 75.9827 15.9066 74.8667 15.9066H73.1293C73.0971 15.9087 73.0648 15.904 73.0345 15.8929C73.0043 15.8819 72.9769 15.8647 72.9541 15.8424C72.9312 15.8202 72.9135 15.7936 72.9022 15.7642C72.8908 15.7348 72.886 15.7034 72.8881 15.672V12.6223C72.886 12.591 72.8908 12.5596 72.9022 12.5302C72.9135 12.5008 72.9312 12.4741 72.9541 12.4519C72.9769 12.4297 73.0043 12.4125 73.0345 12.4014C73.0648 12.3903 73.0971 12.3857 73.1293 12.3877H74.8667C75.9827 12.3877 76.7063 13.0676 76.7063 14.1472Z" fill="white"/>
<path d="M61.1004 23.9762H64.1153C64.2587 23.9875 64.4029 23.9688 64.5382 23.9213C64.6735 23.8738 64.7968 23.7986 64.8996 23.7008C65.0025 23.603 65.0826 23.4848 65.1346 23.3544C65.1865 23.2239 65.209 23.0841 65.2007 22.9444V9.05572C65.2007 8.42153 64.7673 8.02391 64.1153 8.02391H59.8454C59.1218 8.02391 58.6394 8.3758 58.3737 9.14916L56.9756 13.1213C56.9399 13.2692 56.8538 13.401 56.7314 13.4954C56.6089 13.5897 56.4573 13.641 56.3011 13.641C56.1449 13.641 55.9933 13.5897 55.8709 13.4954C55.7484 13.401 55.6623 13.2692 55.6266 13.1213L54.2285 9.14518C53.9628 8.37182 53.4804 8.01993 52.7568 8.01993H48.4869C48.3435 8.00861 48.1993 8.02733 48.064 8.07484C47.9287 8.12236 47.8054 8.19755 47.7026 8.29535C47.5997 8.39315 47.5196 8.51129 47.4676 8.64177C47.4157 8.77226 47.3932 8.91206 47.4015 9.05174V22.9404C47.4015 23.5746 47.8349 23.9722 48.4869 23.9722H51.5018C51.6452 23.9836 51.7894 23.9648 51.9247 23.9173C52.06 23.8698 52.1833 23.7946 52.2861 23.6968C52.389 23.599 52.4691 23.4809 52.5211 23.3504C52.573 23.2199 52.5955 23.0801 52.5872 22.9404V15.3201C52.5872 15.2028 52.6362 15.1551 52.7078 15.1551C52.7418 15.1565 52.7745 15.1687 52.8007 15.1899C52.827 15.2111 52.8453 15.2401 52.8529 15.2724L54.5903 20.1511C54.8069 20.7853 55.1442 21.0418 55.6511 21.0418H56.9531C57.46 21.0418 57.7973 20.7834 58.014 20.1511L59.7514 15.2724C59.7586 15.2399 59.7769 15.2107 59.8032 15.1895C59.8295 15.1682 59.8623 15.1561 59.8965 15.1551C59.968 15.1551 60.0171 15.2028 60.0171 15.3201V22.9444C60.0088 23.0839 60.0313 23.2235 60.0831 23.3538C60.1349 23.4842 60.2148 23.6022 60.3174 23.7C60.4201 23.7977 60.5431 23.873 60.6781 23.9206C60.8132 23.9683 60.9572 23.9872 61.1004 23.9762Z" fill="white"/>
<path d="M35.2479 8.02396H31.7732C31.6298 8.01263 31.4856 8.03136 31.3503 8.07887C31.2149 8.12638 31.0917 8.20158 30.9888 8.29938C30.8859 8.39718 30.8058 8.51531 30.7539 8.6458C30.702 8.77629 30.6794 8.91609 30.6878 9.05577V17.5488C30.6878 21.9226 33.2694 24.3083 38.0687 24.3083C42.868 24.3083 45.4495 21.9226 45.4495 17.5488V9.05577C45.4495 8.42158 45.0162 8.02396 44.3642 8.02396H40.8894C40.746 8.01263 40.6018 8.03136 40.4665 8.07887C40.3312 8.12638 40.2079 8.20158 40.105 8.29938C40.0022 8.39718 39.922 8.51531 39.8701 8.6458C39.8182 8.77629 39.7956 8.91609 39.804 9.05577V17.5707C39.804 18.7635 39.1295 19.5409 38.0666 19.5409C37.0037 19.5409 36.3292 18.7675 36.3292 17.5707V9.05577C36.3375 8.91645 36.3151 8.77701 36.2634 8.64683C36.2117 8.51664 36.132 8.39872 36.0295 8.30099C35.9271 8.20325 35.8044 8.12797 35.6696 8.08019C35.5348 8.0324 35.391 8.01323 35.2479 8.02396Z" fill="white"/>
<path d="M28.8543 12.2225C28.8543 9.66587 26.9248 8.02372 23.8854 8.02372H15.1534C15.01 8.01239 14.8658 8.03112 14.7305 8.07863C14.5952 8.12614 14.4719 8.20134 14.3691 8.29914C14.2662 8.39694 14.1861 8.51507 14.1342 8.64556C14.0822 8.77604 14.0597 8.91585 14.068 9.05553V22.9442C14.068 23.5784 14.5014 23.976 15.1534 23.976H23.9814C27.262 23.976 29.3837 22.1868 29.3837 19.4492C29.3837 17.5724 28.4905 16.2345 26.8021 15.5307C28.1532 15.0138 28.8543 13.8647 28.8543 12.2225ZM19.4703 11.9879C19.4682 11.9564 19.473 11.9248 19.4845 11.8953C19.496 11.8657 19.5139 11.839 19.537 11.8167C19.56 11.7945 19.5877 11.7773 19.6182 11.7664C19.6487 11.7554 19.6812 11.751 19.7136 11.7533H22.3912C23.2354 11.7533 23.7668 12.2702 23.7668 13.0436C23.7668 13.817 23.2354 14.3339 22.3912 14.3339H19.7136C19.6813 14.3359 19.649 14.3312 19.6188 14.3202C19.5886 14.3091 19.5612 14.2919 19.5383 14.2697C19.5155 14.2475 19.4978 14.2208 19.4864 14.1914C19.4751 14.162 19.4703 14.1306 19.4724 14.0993L19.4703 11.9879ZM22.6303 20.2464H19.7136C19.6813 20.2484 19.649 20.2438 19.6188 20.2327C19.5886 20.2216 19.5612 20.2044 19.5383 20.1822C19.5155 20.16 19.4978 20.1333 19.4864 20.1039C19.4751 20.0745 19.4703 20.0431 19.4724 20.0118V17.8528C19.4703 17.8214 19.4751 17.79 19.4864 17.7606C19.4978 17.7312 19.5155 17.7045 19.5383 17.6823C19.5612 17.6601 19.5886 17.6429 19.6188 17.6318C19.649 17.6208 19.6813 17.6161 19.7136 17.6182H22.6324C23.4766 17.6182 24.008 18.1351 24.008 18.9323C24.008 19.7295 23.4745 20.2464 22.6303 20.2464Z" fill="white"/>
</g>
<defs>
<clipPath id="clip0_2_9325">
<rect width="126" height="32" fill="white" transform="translate(0.5)"/>
</clipPath>
</defs>
</svg>
