<svg width="97" height="24" viewBox="0 0 97 24" fill="none" xmlns="http://www.w3.org/2000/svg">
<path d="M26.0912 8.73035H35.7483V10.5282H31.9461V20.6628H29.8619V10.5282H26.0753L26.0912 8.73035ZM35.3348 12.0237H37.1169V13.6942H37.1485C37.2123 13.4556 37.3239 13.2328 37.4826 13.0101C37.6419 12.7873 37.8328 12.5805 38.0714 12.4055C38.294 12.2146 38.5487 12.0714 38.8351 11.96C39.1054 11.8487 39.3918 11.785 39.6781 11.785C39.9012 11.785 40.06 11.801 40.1399 11.801C40.2192 11.8168 40.3147 11.8328 40.3941 11.8328V13.6624C40.267 13.6306 40.1238 13.6146 39.9806 13.5988C39.8374 13.5828 39.7103 13.5669 39.5671 13.5669C39.2486 13.5669 38.9466 13.6306 38.6603 13.7578C38.3739 13.8851 38.1347 14.0761 37.9122 14.3147C37.7052 14.5693 37.5303 14.8715 37.4032 15.2375C37.2756 15.6034 37.2123 16.033 37.2123 16.5103V20.615H35.3031L35.3348 12.0237ZM49.1606 20.6628H47.2675V19.4536H47.2353C46.9967 19.899 46.647 20.2331 46.1853 20.5036C45.7241 20.7741 45.2468 20.9014 44.7695 20.9014C43.6396 20.9014 42.8127 20.6309 42.3032 20.0582C41.7943 19.5013 41.5395 18.6422 41.5395 17.5126V12.0237H43.4487V17.3217C43.4487 18.0854 43.5919 18.6263 43.8943 18.9286C44.1807 19.2468 44.5947 19.4058 45.1192 19.4058C45.5171 19.4058 45.8512 19.3422 46.122 19.2149C46.3923 19.0877 46.6149 18.9286 46.7741 18.7217C46.949 18.5149 47.0605 18.2603 47.1399 17.974C47.2198 17.6876 47.2514 17.3694 47.2514 17.0353V12.0237H49.1606V20.6628ZM52.3906 17.8944C52.4538 18.4513 52.6608 18.8331 53.0266 19.0717C53.3923 19.2945 53.838 19.4058 54.3474 19.4058C54.5223 19.4058 54.7293 19.39 54.9518 19.3581C55.1744 19.3263 55.3975 19.2786 55.5884 19.199C55.7948 19.1195 55.9541 19.0081 56.0812 18.849C56.2089 18.6899 56.2721 18.499 56.2566 18.2604C56.2405 18.0217 56.1611 17.8149 55.9858 17.6558C55.8109 17.4967 55.6039 17.3853 55.3497 17.2739C55.095 17.1785 54.7925 17.0989 54.4584 17.0353C54.1243 16.9716 53.7902 16.8921 53.4406 16.8126C53.0904 16.733 52.7402 16.6375 52.4061 16.5262C52.072 16.4148 51.7856 16.2716 51.5154 16.0648C51.2606 15.8739 51.0381 15.6352 50.8949 15.3329C50.7356 15.0306 50.6562 14.6806 50.6562 14.2352C50.6562 13.7578 50.7673 13.376 51.0059 13.0578C51.229 12.7396 51.5309 12.485 51.8811 12.2941C52.2313 12.1032 52.6287 11.96 53.0582 11.8805C53.4878 11.801 53.9018 11.7691 54.2836 11.7691C54.7293 11.7691 55.1588 11.8168 55.5562 11.9123C55.9541 12.0077 56.3359 12.1509 56.654 12.3737C56.9881 12.5805 57.2589 12.8669 57.4653 13.201C57.6884 13.5351 57.8155 13.9487 57.8793 14.4261H55.8903C55.7948 13.9647 55.5884 13.6624 55.2698 13.5033C54.9357 13.3442 54.57 13.2646 54.1404 13.2646C54.0133 13.2646 53.838 13.2805 53.6631 13.2965C53.4722 13.3283 53.313 13.3601 53.1381 13.4237C52.9789 13.4874 52.8357 13.5828 52.7241 13.6942C52.6131 13.8056 52.5493 13.9647 52.5493 14.1556C52.5493 14.3942 52.6287 14.5693 52.7879 14.7125C52.9472 14.8556 53.1542 14.967 53.4245 15.0784C53.6792 15.1738 53.9812 15.2534 54.3153 15.317C54.6494 15.3807 54.9995 15.4602 55.3497 15.5398C55.6994 15.6193 56.0335 15.7148 56.3676 15.8261C56.7017 15.9375 57.0041 16.0807 57.2589 16.2875C57.5131 16.4785 57.7362 16.7171 57.8949 17.0035C58.0542 17.2899 58.1335 17.6558 58.1335 18.0694C58.1335 18.5785 58.0225 19.0081 57.7839 19.374C57.5453 19.7241 57.2428 20.0264 56.877 20.2491C56.5108 20.4718 56.0812 20.6309 55.6361 20.7423C55.1744 20.8377 54.7293 20.9014 54.2836 20.9014C53.7425 20.9014 53.2336 20.8377 52.7724 20.7105C52.3107 20.5832 51.8972 20.3923 51.5631 20.1536C51.229 19.899 50.9582 19.5968 50.7673 19.2149C50.5763 18.849 50.4653 18.4035 50.4492 17.8785H52.3745V17.8944H52.3906ZM58.6746 12.0237H60.1226V9.41447H62.0317V12.0077H63.75V13.4237H62.0317V18.0376C62.0317 18.2444 62.0478 18.4035 62.0634 18.5626C62.0795 18.7058 62.1272 18.8331 62.1749 18.9286C62.2387 19.024 62.3342 19.1036 62.4452 19.1513C62.5728 19.199 62.7316 19.2308 62.9547 19.2308C63.0818 19.2308 63.225 19.2308 63.3521 19.2149C63.4797 19.199 63.6229 19.1831 63.75 19.1513V20.6309C63.543 20.6628 63.3365 20.6786 63.1295 20.6946C62.9225 20.7264 62.7316 20.7264 62.509 20.7264C62.0001 20.7264 61.6022 20.6786 61.2997 20.5832C60.9978 20.4877 60.7592 20.3445 60.5838 20.1695C60.409 19.9786 60.2974 19.7559 60.2341 19.4854C60.1703 19.2149 60.1381 18.8808 60.1226 18.5308V13.4397H58.6746V11.9919V12.0237ZM65.0864 12.0237H66.884V13.201H66.9161C67.1864 12.6919 67.5527 12.3418 68.03 12.1191C68.5073 11.8964 69.0162 11.785 69.5889 11.785C70.2732 11.785 70.8615 11.8964 71.371 12.1509C71.8799 12.3896 72.2934 12.7078 72.6275 13.1374C72.9616 13.551 73.2163 14.0442 73.3756 14.6011C73.5343 15.1579 73.6298 15.7625 73.6298 16.383C73.6298 16.9716 73.5504 17.5285 73.4072 18.0694C73.248 18.6104 73.0254 19.1036 72.7229 19.5172C72.421 19.9309 72.0392 20.265 71.5619 20.5196C71.0846 20.7741 70.5435 20.9014 69.907 20.9014C69.6367 20.9014 69.3503 20.8695 69.0795 20.8218C68.8092 20.7741 68.5389 20.6946 68.2842 20.5832C68.03 20.4718 67.7908 20.3286 67.5843 20.1536C67.3613 19.9786 67.1864 19.7718 67.0432 19.549H67.0116V23.8606H65.1025V12.0237H65.0864ZM71.7528 16.3512C71.7528 15.9693 71.7051 15.5875 71.5935 15.2215C71.4981 14.8556 71.3388 14.5374 71.1323 14.251C70.9253 13.9647 70.6706 13.742 70.3842 13.5669C70.0823 13.3919 69.7321 13.3123 69.3503 13.3123C68.5545 13.3123 67.9501 13.5828 67.5366 14.1397C67.1387 14.6965 66.9317 15.4443 66.9317 16.3671C66.9317 16.8126 66.9794 17.2103 67.091 17.5762C67.2025 17.9421 67.3457 18.2604 67.5683 18.5308C67.7753 18.8013 68.03 19.0081 68.3319 19.1672C68.6344 19.3263 68.9685 19.4058 69.3664 19.4058C69.8115 19.4058 70.1617 19.3104 70.4641 19.1354C70.7661 18.9604 71.0047 18.7217 71.2117 18.4513C71.4026 18.1649 71.5458 17.8467 71.6252 17.4808C71.7051 17.0989 71.7528 16.733 71.7528 16.3512ZM75.1094 8.73035H77.0191V10.5282H75.1094V8.73035ZM75.1094 12.0237H77.0191V20.6628H75.1094V12.0237ZM78.7212 8.73035H80.6303V20.6628H78.7212V8.73035ZM86.4532 20.9014C85.7695 20.9014 85.149 20.79 84.6079 20.5514C84.0668 20.3127 83.6217 20.0104 83.2399 19.6127C82.8736 19.2149 82.5872 18.7217 82.3963 18.1649C82.2054 17.608 82.0938 16.9876 82.0938 16.3352C82.0938 15.683 82.1893 15.0784 82.3963 14.5215C82.5872 13.9647 82.8736 13.4874 83.2399 13.0737C83.6056 12.676 84.0668 12.3578 84.6079 12.1351C85.149 11.9123 85.7695 11.785 86.4532 11.785C87.1375 11.785 87.758 11.8964 88.2991 12.1351C88.8397 12.3578 89.2853 12.676 89.6671 13.0737C90.0329 13.4715 90.3192 13.9647 90.5102 14.5215C90.7011 15.0784 90.8126 15.683 90.8126 16.3352C90.8126 17.0035 90.7172 17.608 90.5102 18.1649C90.3037 18.7217 90.0329 19.199 89.6671 19.6127C89.3014 20.0104 88.8397 20.3286 88.2991 20.5514C87.758 20.7741 87.1536 20.9014 86.4532 20.9014ZM86.4532 19.39C86.8672 19.39 87.2491 19.2945 87.551 19.1195C87.8695 18.9445 88.1082 18.7058 88.3146 18.4195C88.5216 18.1331 88.6648 17.7989 88.7603 17.449C88.8557 17.083 88.9035 16.7171 88.9035 16.3352C88.9035 15.9693 88.8557 15.6034 88.7603 15.2375C88.6648 14.8715 88.5216 14.5533 88.3146 14.267C88.1082 13.9806 87.8534 13.7578 87.551 13.5828C87.233 13.4079 86.8672 13.3123 86.4532 13.3123C86.0398 13.3123 85.6579 13.4079 85.3555 13.5828C85.0375 13.7578 84.7988 13.9965 84.5918 14.267C84.3853 14.5533 84.2416 14.8715 84.1462 15.2375C84.0512 15.6034 84.0035 15.9693 84.0035 16.3352C84.0035 16.7171 84.0512 17.083 84.1462 17.449C84.2416 17.8149 84.3853 18.1331 84.5918 18.4195C84.7988 18.7058 85.0535 18.9445 85.3555 19.1195C85.674 19.3104 86.0398 19.39 86.4532 19.39ZM91.3854 12.0237H92.8333V9.41447H94.7424V12.0077H96.4607V13.4237H94.7424V18.0376C94.7424 18.2444 94.7585 18.4035 94.7741 18.5626C94.7902 18.7058 94.8379 18.8331 94.8856 18.9286C94.9494 19.024 95.0449 19.1036 95.1559 19.1513C95.2835 19.199 95.4423 19.2308 95.6654 19.2308C95.7925 19.2308 95.9357 19.2308 96.0628 19.2149C96.1904 19.199 96.3336 19.1831 96.4607 19.1513V20.6309C96.2537 20.6628 96.0472 20.6786 95.8402 20.6946C95.6332 20.7264 95.4423 20.7264 95.2197 20.7264C94.7108 20.7264 94.3129 20.6786 94.0104 20.5832C93.7085 20.4877 93.4699 20.3445 93.2945 20.1695C93.1197 19.9786 93.0081 19.7559 92.9448 19.4854C92.881 19.2149 92.8494 18.8808 92.8333 18.5308V13.4397H91.3854V11.9919V12.0237Z" fill="white"/>
<path d="M23.8644 8.73005H15.1299L12.4412 0.425049L9.73644 8.73005L1.00195 8.71412L8.06594 13.853L5.36123 22.158L12.4252 17.0191L19.4892 22.158L16.8004 13.853L23.8644 8.73005Z" fill="#00B67A"/>
<path d="M17.4041 15.7303L16.7995 13.8529L12.4402 17.019L17.4041 15.7303Z" fill="#005128"/>
</svg>
